<?xml version="1.0" encoding="UTF-8"?>
<svg version="1.1" xmlns="http://www.w3.org/2000/svg" width="1712" height="624">
<path d="M0 0 C564.96 0 1129.92 0 1712 0 C1712 205.92 1712 411.84 1712 624 C1147.04 624 582.08 624 0 624 C0 418.08 0 212.16 0 0 Z " fill="#010101" transform="translate(0,0)"/>
<path d="M0 0 C564.96 0 1129.92 0 1712 0 C1712 72.6 1712 145.2 1712 220 C1147.04 220 582.08 220 0 220 C0 147.4 0 74.8 0 0 Z " fill="#FEFEFE" transform="translate(0,404)"/>
<path d="M0 0 C0.79825195 0.41942871 1.59650391 0.83885742 2.41894531 1.27099609 C16.5665199 8.80315038 29.99592576 17.36434303 43.32861328 26.23999023 C47.051058 28.69247643 50.81492327 31.07767032 54.58007812 33.46386719 C59.4471579 36.55342187 64.23719783 39.75263488 69 43 C69.66902344 43.45568359 70.33804688 43.91136719 71.02734375 44.38085938 C87.19002975 55.44338497 101.23590377 65.4181424 105.55023193 85.57009888 C107.36999119 95.9719662 107.29083087 106.27463655 107.265625 116.8046875 C107.2669766 118.81609138 107.26892122 120.82749493 107.27142334 122.83889771 C107.27435812 127.04302091 107.27013478 131.24705868 107.26074219 135.45117188 C107.24942273 140.77000286 107.25586986 146.08863022 107.26788712 151.40745354 C107.275214 155.56201632 107.27276774 159.71653318 107.26763153 163.87109756 C107.26632084 165.82817739 107.26784922 167.78526175 107.27259064 169.74233627 C107.372793 222.76805873 107.372793 222.76805873 96 238 C95.278125 239.051875 94.55625 240.10375 93.8125 241.1875 C81.67910181 253.32089819 65.51971248 255.92740036 49.04174805 257.12011719 C47.9149573 257.20349209 46.78816656 257.28686699 45.62723064 257.3727684 C33.050991 258.23265141 20.4947839 258.29016362 7.89453125 258.265625 C5.3860419 258.26697847 2.8775528 258.2689246 0.36906433 258.27142334 C-4.84016463 258.27434099 -10.04932415 258.27018578 -15.25854492 258.26074219 C-21.8672623 258.24933186 -28.47581742 258.25593893 -35.08452892 258.26788712 C-40.24873535 258.27518217 -45.41290453 258.27278337 -50.5771122 258.26763153 C-53.01146782 258.266317 -55.44582706 258.26786362 -57.88017845 258.27259064 C-118.77105908 258.36497457 -118.77105908 258.36497457 -136.7421875 241.328125 C-157.38172202 220.04583681 -151.34921556 177.88611828 -151.31567383 150.78100586 C-151.30985623 145.69407447 -151.32691455 140.60750447 -151.3500185 135.52063274 C-151.36489221 131.53524244 -151.36560981 127.54993685 -151.36250877 123.5645237 C-151.36301396 121.6906544 -151.36809622 119.81677932 -151.37832069 117.94293785 C-151.47609242 97.55130931 -150.97828874 75.41388922 -136 60 C-126.89163324 52.35102534 -116.97579827 45.79252755 -107.0625 39.25 C-105.59717964 38.27883239 -104.13192986 37.30755827 -102.66674805 36.33618164 C-87.34577988 26.19475887 -71.92725102 16.25391517 -56.125 6.875 C-54.7778894 6.07533813 -54.7778894 6.07533813 -53.40356445 5.25952148 C-36.08621712 -4.91223106 -18.89771351 -10.04265025 0 0 Z " fill="#FDFDFD" transform="translate(206,45)"/>
<path d="M0 0 C126.42601103 0 126.42601103 0 146.75 19.0625 C159.54146338 32.57382928 164.29293254 47.83259583 164.4375 66.1875 C164.45296875 67.8267041 164.45296875 67.8267041 164.46875 69.49902344 C164.28862219 86.05577143 158.11982825 100.73490464 146.60546875 112.59765625 C137.4861793 121.0059966 126.83506396 126.48378535 115 130 C115.60903881 133.14156368 116.62056811 135.16734764 118.51953125 137.73046875 C119.04095703 138.44203125 119.56238281 139.15359375 120.09960938 139.88671875 C120.66486328 140.64597656 121.23011719 141.40523437 121.8125 142.1875 C123.00736308 143.81578089 124.20135424 145.44470193 125.39453125 147.07421875 C126.30259521 148.31051025 126.30259521 148.31051025 127.22900391 149.57177734 C129.86338259 153.1837887 132.43324473 156.83978204 135 160.5 C143.57870046 172.6933135 152.32963565 184.75818473 161.1875 196.75 C165.44784892 202.5194193 169.69247647 208.29882611 173.875 214.125 C174.2980542 214.71120117 174.7211084 215.29740234 175.15698242 215.90136719 C178 219.88074512 178 219.88074512 178 221 C170.46394773 221.27923226 162.92843677 221.49184038 155.38837528 221.62174606 C151.88587131 221.68413521 148.3869282 221.76856423 144.88647461 221.90527344 C140.85237612 222.06182006 136.82195519 222.11902136 132.78515625 222.171875 C131.54105484 222.23381042 130.29695343 222.29574585 129.01515198 222.35955811 C123.56735976 222.36374069 120.32765156 222.25270223 116.26029968 218.41496277 C113.88352633 215.45393337 111.93599036 212.26415876 110 209 C108.91132125 207.41515866 107.81356189 205.83643356 106.69921875 204.26953125 C105.69286109 202.78551359 104.68897666 201.29981592 103.6875 199.8125 C99.51619136 193.66582429 95.30176848 187.55610904 91 181.5 C86.77075275 175.54165282 82.61381224 169.53860664 78.5 163.5 C74.1743281 157.15207974 69.80639631 150.83713968 65.375 144.5625 C64.87806641 143.85867187 64.38113281 143.15484375 63.86914062 142.4296875 C62.96482503 141.15285911 62.0542033 139.88046074 61.13574219 138.61376953 C60 137 60 137 58.6015625 134.58984375 C56.53594557 132.2229227 56.53594557 132.2229227 50 132 C50 161.37 50 190.74 50 221 C33.5 221 17 221 0 221 C0 148.07 0 75.14 0 0 Z " fill="#FCFCFC" transform="translate(390,80)"/>
<path d="M0 0 C3.23112969 2.81435429 6.17480009 5.78058615 9 9 C12.25947848 7.57623667 14.31430047 5.82055436 16.8125 3.3125 C22.80008911 -2.11282785 29.58048855 -5.01957988 37 -8 C37.89332031 -8.36351562 38.78664063 -8.72703125 39.70703125 -9.1015625 C55.13338906 -14.30036655 74.87807834 -11.77282388 89.25 -4.875 C104.47465394 3.24026907 112.98109863 15.32067021 119.1875 31 C121.40587223 39.19091284 122.29363874 47.14587753 122.22705078 55.61206055 C122.22734283 56.60853104 122.22763489 57.60500153 122.22793579 58.63166809 C122.22655668 61.88344424 122.21106308 65.13498327 122.1953125 68.38671875 C122.19157732 70.65786107 122.18873273 72.92900502 122.18673706 75.20014954 C122.17914042 81.14635756 122.15952637 87.0924662 122.1373291 93.03863525 C122.11316579 100.18989763 122.10407078 107.34119344 122.09242249 114.49248505 C122.07309942 125.32839226 122.03474907 136.16408186 122 147 C105.5 147 89 147 72 147 C71.96132812 136.52765625 71.96132812 136.52765625 71.921875 125.84375 C71.89670091 121.41402604 71.8703636 116.98436998 71.83984375 112.5546875 C71.79153918 105.52766686 71.74748293 98.50080343 71.72900391 91.47363281 C71.71383146 85.80650825 71.6793747 80.13979561 71.63169098 74.47285461 C71.61688339 72.31361985 71.60895935 70.15432627 71.60811615 67.99504089 C71.60574295 64.96434905 71.57863375 61.93479232 71.54589844 58.90429688 C71.5509288 58.01668671 71.55595917 57.12907654 71.56114197 56.21456909 C71.44813805 49.42770828 69.70520188 44.19930268 65.2890625 38.9765625 C64.73992187 38.53054687 64.19078125 38.08453125 63.625 37.625 C63.08101562 37.16351563 62.53703125 36.70203125 61.9765625 36.2265625 C55.23694184 32.04426826 47.65396171 32.30816593 40 33 C33.7937571 34.63476745 29.46463362 38.69271093 26 44 C23.51076207 48.75760245 23.69374894 53.32494584 23.68115234 58.5637207 C23.67110672 59.52030075 23.6610611 60.4768808 23.65071106 61.46244812 C23.61987816 64.61688652 23.60284347 67.77124003 23.5859375 70.92578125 C23.56722596 73.11582672 23.54765256 75.30586499 23.5272522 77.49589539 C23.47592365 83.25468699 23.43630167 89.01350197 23.39910889 94.7723999 C23.35203258 101.68498906 23.29043156 108.59746217 23.23126221 115.50995636 C23.14304115 126.00659075 23.0732828 136.50320279 23 147 C6.83 147 -9.34 147 -26 147 C-26.04898437 140.3071875 -26.09796875 133.614375 -26.1484375 126.71875 C-26.18383513 122.47133931 -26.21980164 118.22394864 -26.2578125 113.9765625 C-26.31805193 107.23928739 -26.3762181 100.5020402 -26.421875 93.76464844 C-26.45882859 88.33104578 -26.50521589 82.89759709 -26.55806351 77.46412659 C-26.57655396 75.39419768 -26.59168153 73.32423584 -26.60334396 71.2542572 C-26.62029808 68.34838188 -26.64935506 65.44285509 -26.68115234 62.53710938 C-26.68331253 61.68690216 -26.68547272 60.83669495 -26.68769836 59.96072388 C-26.7978142 52.0505622 -27.93005588 45.37364404 -33 39 C-39.31073454 33.02140938 -46.0635438 32.48332017 -54.44921875 32.625 C-60.49513097 33.26351218 -65.360789 35.31711411 -69.65234375 39.6796875 C-74.56967622 46.09359942 -75.29950597 52.64931518 -75.31884766 60.49365234 C-75.33391609 61.89948074 -75.33391609 61.89948074 -75.34928894 63.33370972 C-75.38006969 66.41777966 -75.39714198 69.50176299 -75.4140625 72.5859375 C-75.43277824 74.72971336 -75.45235196 76.87348189 -75.4727478 79.01724243 C-75.52403198 84.64943107 -75.56367769 90.28164359 -75.60089111 95.91394043 C-75.64800239 102.67721088 -75.70958437 109.4403632 -75.76873779 116.20353699 C-75.85690476 126.46897688 -75.9267018 136.73439466 -76 147 C-92.17 147 -108.34 147 -125 147 C-125 96.18 -125 45.36 -125 -7 C-109.16 -7 -93.32 -7 -77 -7 C-76.505 -2.05 -76.505 -2.05 -76 3 C-75.3709375 2.54109375 -74.741875 2.0821875 -74.09375 1.609375 C-68.92628036 -2.09501589 -63.90771004 -5.60138089 -58 -8 C-57.27296875 -8.2990625 -56.5459375 -8.598125 -55.796875 -8.90625 C-36.98674132 -15.29459729 -16.16043239 -10.7320246 0 0 Z " fill="#FBFBFB" transform="translate(1078,154)"/>
<path d="M0 0 C0.99 0.66 1.98 1.32 3 2 C3 -1.63 3 -5.26 3 -9 C18.51 -9 34.02 -9 50 -9 C50 41.82 50 92.64 50 145 C34.16 145 18.32 145 2 145 C2 141.04 2 137.08 2 133 C1.18917969 133.60328125 0.37835937 134.2065625 -0.45703125 134.828125 C-7.33003278 139.83322461 -13.70189835 143.73801747 -22 146 C-22.7734375 146.22300781 -23.546875 146.44601562 -24.34375 146.67578125 C-42.17075057 151.04339639 -61.20905374 147.1802962 -76.9921875 138.3203125 C-88.79713563 130.93072159 -98.37017343 121.27943685 -105 109 C-105.45890625 108.16339844 -105.9178125 107.32679688 -106.390625 106.46484375 C-116.01170709 87.25165873 -117.56879859 62.12520518 -111.390625 41.6328125 C-103.15027553 20.10605686 -90.13493315 3.04432467 -69 -7 C-64.72384275 -8.65338186 -60.4551398 -9.92715265 -56 -11 C-54.61361328 -11.33644531 -54.61361328 -11.33644531 -53.19921875 -11.6796875 C-33.54781055 -15.83179401 -15.91052861 -11.85261397 0 0 Z " fill="#FCFCFC" transform="translate(1600,156)"/>
<path d="M0 0 C16.48405891 12.90947707 27.36380651 30.13175887 30.890625 50.83984375 C31.29304273 55.3089707 31.36910944 59.72946782 31.328125 64.21484375 C31.31982666 65.3958667 31.31152832 66.57688965 31.30297852 67.79370117 C30.94944579 86.08807636 24.88035383 101.92851053 12.890625 115.83984375 C12.37113281 116.50242187 11.85164062 117.165 11.31640625 117.84765625 C-1.28776604 133.41213051 -21.44773623 142.63049847 -41.109375 144.83984375 C-65.87920586 146.81367588 -89.52813659 141.95281853 -109.109375 125.83984375 C-123.8609987 113.08120178 -135.19784309 95.62207514 -137.109375 75.83984375 C-138.64965292 53.98092452 -135.85494376 32.91644032 -121.46484375 15.51953125 C-118.8116757 12.48306021 -115.99745003 9.65322718 -113.109375 6.83984375 C-112.3565625 6.08960938 -111.60375 5.339375 -110.828125 4.56640625 C-81.11511025 -23.53177074 -32.45748228 -22.54897952 0 0 Z " fill="#FCFCFC" transform="translate(711.109375,159.16015625)"/>
<path d="M0 0 C3.65301494 3.06000737 7.03242391 6.35180107 10.38085938 9.73974609 C11.04859375 10.39716797 11.71632813 11.05458984 12.40429688 11.73193359 C27.67425442 27.83102911 31.83847673 48.66733235 31.59179688 70.09130859 C31.4258345 76.35485145 30.54840693 81.85056028 28.38085938 87.73974609 C27.96707031 88.93599609 27.55328125 90.13224609 27.12695312 91.36474609 C20.19278009 110.55789429 6.77493356 126.5934239 -11.61914062 135.73974609 C-34.05976013 145.71230247 -58.8713177 148.92123588 -82.43896484 140.57861328 C-92.46449244 136.72108665 -101.5101204 131.83717828 -109.61914062 124.73974609 C-110.29074219 124.20994141 -110.96234375 123.68013672 -111.65429688 123.13427734 C-125.74993809 111.70024083 -134.54142304 93.63404617 -136.61914062 75.73974609 C-138.43937446 51.63060957 -134.04995729 30.78066654 -118.34179688 11.77490234 C-90.02990386 -20.72374397 -34.45834726 -26.82056522 0 0 Z " fill="#FCFCFC" transform="translate(896.619140625,159.26025390625)"/>
<path d="M0 0 C17.16 0 34.32 0 52 0 C54.6840016 6.03900361 57.1778354 11.96848377 59.3984375 18.16796875 C59.71036041 19.02995377 60.02228333 19.89193878 60.34365845 20.78004456 C61.01126707 22.62584728 61.67744036 24.47216969 62.34228516 26.31896973 C64.10446608 31.21370845 65.87716733 36.1046385 67.6484375 40.99609375 C68.00838806 41.99101837 68.36833862 42.98594299 68.73919678 44.01101685 C72.45397573 54.27166865 76.22139413 64.51271234 80 74.75 C80.3068573 75.58171722 80.6137146 76.41343445 80.92987061 77.27035522 C82.61860422 81.84738793 84.30860711 86.42394936 86 91 C87.64512531 88.53231203 88.58308057 86.71599821 89.58129883 83.9921875 C89.87999374 83.18321518 90.17868866 82.37424286 90.48643494 81.54075623 C90.80673172 80.66105667 91.1270285 79.78135712 91.45703125 78.875 C91.79662369 77.95215714 92.13621613 77.02931427 92.48609924 76.07850647 C93.21754343 74.08936128 93.94718897 72.09955396 94.67523193 70.10916138 C95.81662598 66.98872004 96.96256967 63.86998563 98.10986328 60.75170898 C99.66183561 56.53278183 101.21220006 52.3132699 102.76123047 48.09326172 C105.67571343 40.15676099 108.60561823 32.22601538 111.54598999 24.29907227 C112.35758205 22.10949158 113.16678842 19.9190397 113.97583008 17.72851562 C114.47073673 16.39318129 114.96576518 15.05789209 115.4609375 13.72265625 C116.09201416 12.01734741 116.09201416 12.01734741 116.73583984 10.27758789 C118.07056667 6.8170418 119.53894302 3.40913295 121 0 C137.83 0 154.66 0 172 0 C165.11395275 18.36279267 165.11395275 18.36279267 161.890625 25.89453125 C161.52656052 26.75323318 161.16249603 27.61193512 160.78739929 28.49665833 C160.01226577 30.32407992 159.23569082 32.15089071 158.45773315 33.97711182 C156.34649173 38.93366117 154.2466151 43.89503054 152.14453125 48.85546875 C151.71415054 49.87016235 151.28376984 50.88485596 150.84034729 51.93029785 C146.50781716 62.14867815 142.21833083 72.38487584 137.9375 82.625 C137.20338803 84.38029762 136.46925718 86.13558733 135.73510742 87.89086914 C134.25636682 91.42679256 132.77797463 94.96286142 131.29980469 98.49902344 C127.62298774 107.29447644 123.94295931 116.08858564 120.26248169 124.88250732 C119.09063008 127.68277997 117.91919321 130.48322584 116.74780273 133.28369141 C116.03110392 134.99642625 115.31438927 136.70915447 114.59765625 138.421875 C114.27660919 139.18968292 113.95556213 139.95749084 113.62478638 140.74856567 C113.32200775 141.4718808 113.01922913 142.19519592 112.70727539 142.94042969 C112.44846085 143.55907898 112.1896463 144.17772827 111.92298889 144.81512451 C110.62744679 147.88189834 109.31143367 150.93998811 108 154 C93.81 154 79.62 154 65 154 C56.90962356 135.6281035 48.94162399 117.22057698 41.17797852 98.70898438 C40.49889032 97.08983132 39.81977232 95.47069076 39.140625 93.8515625 C38.80224106 93.04475037 38.46385712 92.23793823 38.11521912 91.40667725 C34.60918687 83.05503379 31.05951178 74.72210735 27.50875854 66.3894043 C21.49760619 52.28032914 15.52897777 38.15427947 9.625 24 C9.30771942 23.24056091 8.99043884 22.48112183 8.6635437 21.69866943 C7.76622582 19.54979907 6.87100625 17.40006803 5.9765625 15.25 C5.47205566 14.03828125 4.96754883 12.8265625 4.44775391 11.578125 C2.8970687 7.7456052 1.45166646 3.87111057 0 0 Z " fill="#FCFCFC" transform="translate(1308,147)"/>
<path d="M0 0 C16.83 0 33.66 0 51 0 C51 72.93 51 145.86 51 221 C34.17 221 17.34 221 0 221 C0 148.07 0 75.14 0 0 Z " fill="#FBFBFA" transform="translate(1235,80)"/>
<path d="M0 0 C9.2195078 6.52273535 13.87580678 14.29624237 17 25 C18.20585759 35.67043755 16.44774746 46.63151474 10.125 55.5 C3.80353869 63.00377951 -4.60619336 68.37552166 -14.51953125 69.34375 C-26.33510122 69.92106702 -34.91566164 67.8646001 -44.24609375 60.140625 C-52.54920714 51.49824461 -55.35716223 40.52539619 -55.21484375 28.87109375 C-54.45631715 18.7344201 -50.05238215 10.64528071 -42.75 3.75 C-31.07980257 -5.92122397 -13.47328378 -7.93426712 0 0 Z " fill="#030303" transform="translate(677,191)"/>
<path d="M0 0 C0.78802002 0.00499512 1.57604004 0.00999023 2.38793945 0.01513672 C11.61193446 0.28800814 19.99986301 3.2789046 26.78515625 9.69921875 C35.20124063 19.62201901 37.16889829 29.75804935 36.50341797 42.39941406 C35.68861236 51.36435969 31.79009767 59.29281437 25.3125 65.5 C14.94314024 73.14144578 4.87202419 74.7497039 -7.6875 73.5 C-11.1156486 72.66663791 -13.7497122 71.43054627 -16.6875 69.5 C-17.72777344 68.84644531 -17.72777344 68.84644531 -18.7890625 68.1796875 C-27.70995013 62.06537126 -32.46539083 54.04560285 -34.6875 43.5 C-35.8823985 31.36305339 -34.02335925 21.58874966 -26.7109375 11.76171875 C-19.69082158 3.91490964 -10.38540017 -0.08672104 0 0 Z " fill="#020202" transform="translate(842.6875,186.5)"/>
<path d="M0 0 C8.17192365 5.14343127 13.65008962 12.52327381 16.1640625 21.890625 C18.03412466 35.01883917 17.00322352 46.58831871 9.203125 57.53515625 C2.98296974 65.3287314 -4.39129977 68.89132383 -14.29296875 70.05859375 C-25.25155096 70.7136834 -34.02873618 67.83615809 -42.32421875 60.48046875 C-50.61110968 51.38113753 -53.05585501 40.54088771 -52.7890625 28.6015625 C-52.27960918 19.83938818 -48.55921765 11.62603355 -42.484375 5.32421875 C-30.53458935 -4.76773074 -14.18364505 -7.00354258 0 0 Z " fill="#020202" transform="translate(1586.44921875,190.39453125)"/>
<path d="M0 0 C10.333125 -0.12375 10.333125 -0.12375 20.875 -0.25 C23.0288623 -0.28641602 25.18272461 -0.32283203 27.40185547 -0.36035156 C29.14028939 -0.3720518 30.87873442 -0.38224045 32.6171875 -0.390625 C33.4944751 -0.41108887 34.3717627 -0.43155273 35.27563477 -0.45263672 C44.56742966 -0.45778881 52.57553053 2.58234104 59.3046875 9.0390625 C64.8966301 15.507162 65.66426772 22.17373625 65.375 30.5625 C64.59415772 37.72022086 62.52397903 42.95421272 57.25 47.9375 C49.07439604 54.3959232 39.98386668 55.16134575 29.8828125 55.09765625 C29.12218506 55.09664917 28.36155762 55.09564209 27.57788086 55.09460449 C24.76023838 55.08940693 21.94261753 55.07544587 19.125 55.0625 C12.81375 55.041875 6.5025 55.02125 0 55 C0 36.85 0 18.7 0 0 Z " fill="#030303" transform="translate(440,119)"/>
<path d="M0 0 C3.96234237 1.08002518 7.06175847 3.50195433 10.41796875 5.8046875 C22.20844212 13.26985135 36.56770358 14.24371683 49.98046875 11.4375 C57.18177877 9.59368632 63.44297048 6.73399872 69.41796875 2.3125 C73.50110999 -0.08412638 75.5920699 -0.04655698 80.29296875 0.625 C83.41181863 2.63925721 84.86875957 4.1018328 85.875 7.71484375 C86.22610217 11.19611106 86.00202064 13.60057876 83.984375 16.515625 C69.71595875 30.13966116 49.67114402 33.1601104 30.85546875 32.8984375 C16.91342274 32.42399456 0.80048032 26.25394653 -9.3984375 16.515625 C-11.41608314 13.60057876 -11.64016467 11.19611106 -11.2890625 7.71484375 C-9.71560776 2.06519084 -5.77262951 -0.34657438 0 0 Z " fill="#050505" transform="translate(146.70703125,214.375)"/>
</svg>
